<?xml version="1.0" encoding="UTF-8"?>
<!-- Generator: visioncortex VTracer 0.6.3 -->
<svg version="1.1" xmlns="http://www.w3.org/2000/svg" width="1280" height="1280">
<path d="M0 0 C1.84 -0 3.68 -0.01 5.53 -0.01 C10.51 -0.02 15.49 -0.02 20.47 -0.02 C23.59 -0.02 26.71 -0.02 29.83 -0.03 C40.72 -0.04 51.62 -0.04 62.51 -0.04 C72.64 -0.04 82.77 -0.05 92.9 -0.07 C101.62 -0.08 110.34 -0.08 119.06 -0.08 C124.26 -0.08 129.45 -0.09 134.65 -0.1 C139.54 -0.11 144.43 -0.11 149.32 -0.1 C151.11 -0.1 152.9 -0.1 154.68 -0.11 C183.02 -0.2 183.02 -0.2 189.72 6.15 C191.21 8.45 192.45 10.59 193.66 13.02 C196.24 17.89 198.71 21.48 203.13 24.82 C208.02 28.89 209.91 34.53 211.66 40.46 C212.98 45.09 212.98 45.09 216.66 48.02 C217.67 48.39 218.68 48.76 219.72 49.15 C224 53.42 225.85 57.47 227.72 63.15 C228.88 66.35 229.49 67 232.47 68.83 C238.68 73.25 241.49 79.32 244.1 86.33 C246.14 91.57 248.21 93.69 252.86 96.66 C256.22 99.35 257.3 103.2 258.72 107.15 C260.89 112.37 262.98 114.14 267.72 117.15 C271.33 121.07 273.34 125.3 275.53 130.08 C278.09 135.46 280.25 139.3 285.19 142.8 C288.67 145.86 289.96 150.84 291.38 155.14 C292.99 159.62 294.84 160.98 299.03 163.08 C302.03 164.97 303.24 168.05 304.72 171.15 C307.86 177.26 310.63 182.43 315.72 187.15 C319.94 191.66 321.98 195.43 323.22 201.52 C323.81 204.57 323.81 204.57 324.72 207.15 C327.54 208.72 327.54 208.72 330.72 209.15 C334.85 212.17 336.25 215.29 337.97 219.96 C339.73 224.51 341.34 227.1 345.16 230.15 C352.62 236.12 355.95 244.95 357.72 254.15 C358.42 254.17 359.12 254.19 359.85 254.21 C364.17 255.62 366.31 258.37 368.72 262.15 C369.62 264.45 370.33 266.77 371.02 269.14 C372.4 273.08 375.31 274.86 378.62 277.17 C382.61 280.5 383.8 284.72 385.6 289.46 C389.15 297.96 393.06 301.7 401.49 305.27 C403.22 305.94 404.97 306.55 406.72 307.15 C407.16 306.05 407.16 306.05 407.6 304.93 C412.77 292.05 412.77 292.05 416.72 289.15 C417.73 288.98 418.74 288.82 419.78 288.65 C421.24 287.9 421.24 287.9 422.72 287.15 C423.57 284.66 423.57 284.66 424.1 281.71 C425.76 273.49 430.19 267.45 436.26 261.77 C439.49 258.32 441.16 254.49 443.04 250.23 C445.3 245.37 447.88 242.3 452.91 240.26 C455.69 238.55 455.87 236.4 456.72 233.33 C458.59 227.27 460.41 223.83 465.61 220.04 C469.96 216.44 471.5 211.6 473.56 206.47 C475.94 200.91 478.87 197.72 483.72 194.15 C487.77 190.9 488.93 187.28 490.73 182.56 C491.98 179.52 493.33 177.4 495.72 175.15 C496.73 174.94 497.74 174.73 498.78 174.52 C501.89 173.48 501.89 173.48 502.56 170.93 C503.02 169.02 503.46 167.09 503.89 165.17 C505.96 157.65 510.31 151.51 516.72 147.15 C517.38 147.15 518.04 147.15 518.72 147.15 C518.89 146.58 519.06 146.01 519.24 145.42 C521.57 137.97 523.96 131.65 530.72 127.15 C532.21 126.65 532.21 126.65 533.72 126.15 C534.95 123.2 534.95 123.2 535.97 119.65 C538.51 111.88 542.28 106.36 548.23 100.81 C550.94 97.92 552.43 95.2 554.16 91.65 C556.82 86.51 558.91 83.32 563.72 80.15 C567.36 77.72 567.3 76.76 568.35 72.65 C570.49 65.72 574.28 60.89 579.72 56.15 C580.38 56.15 581.04 56.15 581.72 56.15 C582.13 54.85 582.13 54.85 582.55 53.53 C583.69 50.23 585.01 47.16 586.53 44.02 C587.26 42.5 587.26 42.5 587.99 40.95 C589.9 37.85 591.7 36.16 594.72 34.15 C595.45 33.99 596.19 33.84 596.94 33.68 C597.53 33.51 598.12 33.33 598.72 33.15 C599.72 31.06 599.72 31.06 600.22 28.52 C601.51 23.73 602.81 20.19 605.72 16.15 C607.46 15.17 609.2 14.19 610.99 13.31 C613.15 11.85 614.01 10.34 615.28 8.08 C617.48 4.2 619.42 2.67 623.72 1.15 C628.02 0.05 632.24 -0 636.65 -0 C637.44 -0.01 638.24 -0.01 639.05 -0.01 C641.71 -0.02 644.36 -0.03 647.01 -0.03 C648.92 -0.04 650.82 -0.04 652.73 -0.05 C658.98 -0.07 665.23 -0.08 671.48 -0.09 C673.63 -0.1 675.79 -0.1 677.94 -0.11 C688.07 -0.12 698.19 -0.14 708.31 -0.15 C719.99 -0.16 731.66 -0.18 743.33 -0.22 C752.37 -0.25 761.4 -0.27 770.43 -0.27 C775.82 -0.27 781.21 -0.28 786.6 -0.31 C791.67 -0.33 796.75 -0.34 801.82 -0.33 C803.68 -0.32 805.53 -0.33 807.39 -0.35 C829.35 -0.5 829.35 -0.5 836.97 6.09 C840.59 9.82 842.62 12.84 842.72 18.15 C842.83 19.56 842.83 19.56 842.94 21.01 C843.25 27.23 843.25 27.23 842.72 30.15 C841.07 31.82 839.4 33.49 837.72 35.15 C836.3 37.88 835.27 40.75 834.22 43.65 C831.82 50.29 829.55 55.07 823.03 58.61 C819.97 60.65 819.73 62.25 818.85 65.77 C816.59 73.34 812.47 78.2 807.16 83.9 C803.89 87.7 802.25 92.44 800.35 97.02 C798.06 101.41 795.38 104.25 791.03 106.61 C787.97 108.65 787.73 110.25 786.85 113.77 C784.59 121.34 780.45 126.13 775.24 131.9 C772.37 135.34 770.72 139.14 768.91 143.21 C766.22 148.97 764.35 152.09 758.46 154.83 C755.23 157.27 754.82 161.32 753.78 165.07 C751.73 171.03 747.39 175.3 743.24 179.9 C740.37 183.34 738.72 187.14 736.91 191.21 C734.22 196.97 732.35 200.09 726.46 202.83 C723.23 205.27 722.82 209.32 721.78 213.07 C719.73 219.03 715.39 223.3 711.24 227.9 C708.37 231.34 706.72 235.14 704.91 239.21 C702.22 244.97 700.35 248.09 694.46 250.83 C691.23 253.27 690.82 257.32 689.78 261.07 C687.73 267.03 683.39 271.3 679.24 275.9 C676.37 279.34 674.72 283.14 672.91 287.21 C670.22 292.97 668.35 296.09 662.46 298.83 C659.23 301.27 658.82 305.32 657.78 309.07 C655.73 315.03 651.39 319.3 647.24 323.9 C644.37 327.34 642.72 331.14 640.91 335.21 C638.22 340.97 636.35 344.09 630.46 346.83 C627.23 349.27 626.82 353.32 625.78 357.07 C623.73 363.03 619.39 367.3 615.24 371.9 C612.37 375.34 610.72 379.14 608.91 383.21 C606.22 388.97 604.35 392.09 598.46 394.83 C595.23 397.27 594.82 401.32 593.78 405.07 C591.73 411.03 587.39 415.3 583.24 419.9 C580.37 423.34 578.72 427.14 576.91 431.21 C574.22 436.97 572.35 440.09 566.46 442.83 C563.23 445.27 562.82 449.32 561.78 453.07 C560.11 457.92 557.09 461.36 553.72 465.15 C548.28 471.4 545.14 476.45 545.22 484.96 C545.23 485.66 545.23 486.37 545.24 487.1 C545.56 496.39 549.53 501.18 556.02 507.27 C560.14 511.81 562.3 517.66 564.03 523.46 C565.2 526.83 566.54 527.89 569.66 529.58 C574.72 532.34 575.74 535.96 577.72 541.15 C579.99 545.95 582.3 549.95 586.22 553.58 C591.43 558.48 594.01 564.71 596.03 571.46 C597.2 574.83 598.54 575.89 601.66 577.58 C606.72 580.34 607.74 583.96 609.72 589.15 C611.99 593.95 614.3 597.95 618.22 601.58 C623.43 606.48 626.01 612.71 628.03 619.46 C629.2 622.83 630.54 623.89 633.66 625.58 C638.71 628.34 639.75 631.95 641.72 637.15 C644.22 642.56 647.14 646.72 651.28 651.02 C655.3 655.29 657.28 659.12 658.97 664.7 C659.99 668.09 659.99 668.09 661.72 671.15 C663.39 672.02 663.39 672.02 665.1 672.91 C669.52 675.26 670.83 678.42 672.72 682.9 C675.27 688.45 677.79 692.92 682.06 697.37 C686.53 702.14 689.6 707.02 691.1 713.4 C691.93 716.91 691.93 716.91 694.4 719.32 C695.06 719.64 695.72 719.95 696.41 720.27 C701.82 723.01 703.37 727.88 705.79 733.13 C708.01 737.89 710.4 741.55 714.06 745.37 C718.53 750.14 721.6 755.02 723.1 761.4 C723.93 764.91 723.93 764.91 726.4 767.32 C727.06 767.64 727.72 767.95 728.41 768.27 C733.82 771.01 735.37 775.88 737.79 781.13 C740.01 785.89 742.4 789.55 746.06 793.37 C750.53 798.14 753.6 803.02 755.1 809.4 C755.93 812.91 755.93 812.91 758.4 815.32 C759.06 815.64 759.72 815.95 760.41 816.27 C765.82 819.01 767.37 823.88 769.79 829.13 C772.01 833.89 774.4 837.55 778.06 841.37 C782.53 846.14 785.6 851.02 787.1 857.4 C787.93 860.91 787.93 860.91 790.4 863.32 C791.06 863.64 791.72 863.95 792.41 864.27 C797.82 867.01 799.37 871.88 801.79 877.13 C804.01 881.89 806.4 885.55 810.06 889.37 C814.51 894.13 817.59 898.97 819.03 905.33 C819.82 908.41 820.26 909.77 822.76 911.79 C824.36 912.74 825.97 913.68 827.58 914.61 C830.63 916.8 831.48 919.12 832.76 922.57 C833.91 925.66 835.32 928.56 836.78 931.52 C837.27 932.52 837.76 933.52 838.26 934.54 C839.53 937.14 839.53 937.14 841.39 938.64 C843.95 941.53 843.05 945.47 842.94 949.14 C842.46 955.69 840.77 960.77 835.72 965.15 C829.18 969.23 823.55 970.29 815.9 970.29 C815.1 970.29 814.31 970.29 813.49 970.29 C810.83 970.3 808.17 970.3 805.51 970.31 C803.6 970.31 801.7 970.32 799.79 970.32 C794.6 970.33 789.42 970.34 784.24 970.35 C781 970.35 777.76 970.35 774.52 970.36 C764.38 970.37 754.24 970.38 744.1 970.38 C732.4 970.39 720.7 970.41 709 970.44 C699.96 970.46 690.91 970.47 681.87 970.47 C676.47 970.47 671.06 970.48 665.66 970.49 C660.58 970.51 655.5 970.51 650.41 970.5 C648.55 970.5 646.69 970.51 644.83 970.52 C627.07 970.61 627.07 970.61 619.72 967.15 C614.2 961.48 614.48 956.95 614.41 949.4 C614.38 948.41 614.35 947.42 614.32 946.4 C614.27 940.32 614.6 936.73 618.72 932.15 C624.1 928.89 628.52 928.02 634.72 927.99 C635.95 927.99 637.18 927.98 638.45 927.97 C639.81 927.96 641.17 927.96 642.53 927.96 C643.96 927.95 645.4 927.94 646.83 927.93 C649.92 927.91 653.01 927.9 656.09 927.88 C660.97 927.86 665.85 927.84 670.73 927.81 C681.96 927.74 693.19 927.69 704.43 927.63 C714.73 927.58 725.02 927.53 735.32 927.47 C740.17 927.44 745.03 927.42 749.88 927.4 C752.89 927.38 755.91 927.37 758.92 927.35 C760.32 927.34 761.72 927.33 763.12 927.33 C765.03 927.32 766.94 927.31 768.84 927.3 C769.91 927.29 770.98 927.29 772.08 927.28 C774.83 927.26 774.83 927.26 777.72 926.15 C775.77 921.63 774.3 918.32 770.35 915.33 C764.39 910.63 761.27 903.53 759.35 896.33 C758.28 892.78 757.25 891.56 754.1 889.65 C748.77 886.21 746.65 880.91 744.04 875.32 C741.59 870.21 739.16 867.64 734.72 864.15 C732.93 861.57 732.93 861.57 731.53 858.9 C730.78 857.46 730.78 857.46 730.01 855.99 C728.85 853.44 728.06 851.04 727.35 848.33 C726.28 844.78 725.25 843.56 722.1 841.65 C716.77 838.21 714.65 832.91 712.04 827.32 C709.59 822.21 707.16 819.64 702.72 816.15 C700.93 813.57 700.93 813.57 699.53 810.9 C698.78 809.46 698.78 809.46 698.01 807.99 C696.85 805.44 696.06 803.04 695.35 800.33 C694.28 796.78 693.25 795.56 690.1 793.65 C684.77 790.21 682.65 784.91 680.04 779.32 C677.59 774.21 675.16 771.64 670.72 768.15 C668.93 765.57 668.93 765.57 667.53 762.9 C666.78 761.46 666.78 761.46 666.01 759.99 C664.85 757.44 664.06 755.04 663.35 752.33 C662.28 748.78 661.25 747.56 658.1 745.65 C652.77 742.21 650.65 736.91 648.04 731.32 C645.59 726.21 643.16 723.64 638.72 720.15 C636.93 717.57 636.93 717.57 635.53 714.9 C634.78 713.46 634.78 713.46 634.01 711.99 C632.85 709.44 632.06 707.04 631.35 704.33 C630.28 700.78 629.25 699.56 626.1 697.65 C620.77 694.21 618.65 688.91 616.04 683.32 C613.59 678.21 611.16 675.64 606.72 672.15 C604.93 669.57 604.93 669.57 603.53 666.9 C602.78 665.46 602.78 665.46 602.01 663.99 C600.85 661.44 600.06 659.04 599.35 656.33 C597.99 651.76 595.51 650.23 591.65 647.66 C588.44 645.13 587.23 641.85 585.72 638.15 C583.83 633.68 582.25 630.32 578.35 627.33 C572.39 622.63 569.27 615.53 567.35 608.33 C565.99 603.76 563.51 602.23 559.65 599.66 C556.44 597.13 555.23 593.85 553.72 590.15 C551.83 585.68 550.28 582.35 546.35 579.4 C540.17 574.52 536.96 566.64 535.72 559.02 C535.41 556.89 535.41 556.89 534.72 555.15 C531.9 553.87 531.9 553.87 528.72 553.15 C524.42 549.05 522.8 544.97 520.75 539.47 C519.34 536.29 517.32 534.42 514.72 532.15 C509.11 526.11 505.5 519.31 503.41 511.33 C502.29 507.65 501.05 506.36 497.72 504.46 C497.04 504.14 496.36 503.83 495.66 503.51 C492.7 501.43 491.95 499.56 490.72 496.15 C490.28 492.49 490.26 488.89 490.28 485.21 C490.26 484.24 490.24 483.28 490.22 482.29 C490.23 476.05 490.94 472.17 494.72 467.15 C495.88 466.59 497.03 466.03 498.22 465.46 C500.91 464.13 501.62 463.38 502.85 460.59 C503.48 458.5 504.1 456.41 504.7 454.32 C506.66 448.21 509.56 442.82 514.66 438.86 C518.36 435.91 519.91 432.34 521.78 428.08 C524.05 422.96 525.79 419.23 530.72 416.15 C533.03 415.4 533.03 415.4 534.72 415.15 C534.87 414.4 535.02 413.64 535.17 412.87 C537.04 404.35 539.55 396.38 546.67 390.86 C550.36 387.91 551.91 384.34 553.78 380.08 C556.56 373.79 559.1 370.53 564.95 366.68 C567.18 364.75 567.47 363.43 568.1 360.58 C569.97 353.65 572.92 347.32 578.67 342.86 C582.36 339.91 583.91 336.34 585.78 332.08 C588.56 325.79 591.1 322.53 596.95 318.68 C599.18 316.75 599.47 315.43 600.1 312.58 C601.97 305.65 604.92 299.32 610.67 294.86 C614.36 291.91 615.91 288.34 617.78 284.08 C620.56 277.79 623.1 274.53 628.95 270.68 C631.18 268.75 631.47 267.43 632.1 264.58 C633.97 257.65 636.92 251.32 642.67 246.86 C646.36 243.91 647.91 240.34 649.78 236.08 C652.56 229.79 655.1 226.53 660.95 222.68 C663.18 220.75 663.47 219.43 664.1 216.58 C665.97 209.65 668.92 203.32 674.67 198.86 C678.36 195.91 679.91 192.34 681.78 188.08 C684.56 181.79 687.1 178.53 692.95 174.68 C695.18 172.75 695.47 171.43 696.1 168.58 C697.97 161.65 700.92 155.32 706.67 150.86 C710.36 147.91 711.91 144.34 713.78 140.08 C716.56 133.79 719.1 130.53 724.95 126.68 C727.18 124.75 727.47 123.43 728.1 120.58 C729.96 113.71 733.04 106.91 738.85 102.52 C742.5 99.5 743.86 96.42 745.72 92.15 C748.48 85.94 750.95 82.55 756.79 78.82 C759.13 76.79 759.44 75.57 760.1 72.58 C761.96 65.71 765.04 58.91 770.85 54.52 C774.46 51.54 775.93 48.39 777.72 44.15 C774.69 43.13 772.66 43.02 769.48 43.01 C767.86 43.01 767.86 43.01 766.19 43 C765 43 763.81 43 762.59 43 C761.33 43 760.08 42.99 758.79 42.99 C755.35 42.98 751.91 42.98 748.47 42.98 C745.6 42.98 742.73 42.97 739.86 42.97 C733.09 42.96 726.32 42.96 719.55 42.96 C712.56 42.96 705.57 42.95 698.58 42.93 C692.58 42.92 686.58 42.92 680.59 42.92 C677 42.92 673.42 42.91 669.84 42.9 C665.84 42.89 661.85 42.9 657.86 42.9 C656.07 42.89 656.07 42.89 654.25 42.89 C653.16 42.89 652.08 42.89 650.96 42.9 C650.01 42.9 649.07 42.9 648.1 42.9 C645.45 42.99 645.45 42.99 642.72 45.15 C641.93 47.16 641.93 47.16 641.41 49.46 C639.89 54.43 638.01 56.26 633.72 59.15 C633.04 59.4 632.35 59.66 631.65 59.93 C628.85 61.69 628.69 63.56 627.85 66.71 C625.57 74.12 622.52 80.19 616.22 84.9 C611.82 88.33 610.23 93.06 608.18 98.12 C606.7 101.2 605.36 103 602.72 105.15 C601.71 105.31 600.7 105.48 599.66 105.65 C598.2 106.39 598.2 106.39 596.72 107.15 C595.88 109.63 595.88 109.63 595.35 112.58 C593.69 120.8 589.25 126.84 583.18 132.52 C579.95 135.97 578.28 139.8 576.41 144.06 C574.14 148.92 571.56 151.99 566.53 154.03 C563.76 155.74 563.57 157.89 562.72 160.96 C560.86 167.02 559.03 170.46 553.83 174.25 C549.48 177.85 547.94 182.69 545.89 187.82 C543.5 193.38 540.57 196.57 535.72 200.15 C531.67 203.39 530.51 207.01 528.71 211.74 C527.46 214.77 526.12 216.89 523.72 219.15 C522.71 219.35 521.7 219.56 520.66 219.77 C517.56 220.81 517.56 220.81 516.88 223.36 C516.43 225.28 515.99 227.2 515.55 229.12 C513.49 236.64 509.13 242.78 502.72 247.15 C502.06 247.15 501.4 247.15 500.72 247.15 C500.54 247.73 500.36 248.31 500.17 248.9 C497.65 256.73 495.48 262.21 488.72 267.15 C487.73 267.48 486.74 267.81 485.72 268.15 C484.49 271.09 484.49 271.09 483.47 274.65 C480.89 282.54 477 288.02 471.03 293.71 C467.62 297.3 465.89 301.56 463.87 306.04 C462 309.79 460.49 311.44 456.72 313.33 C453.88 314.92 452.89 315.73 451.63 318.77 C451.06 320.84 450.49 322.91 449.92 324.99 C447.88 330.37 444.02 334.39 439.72 338.15 C439.06 338.15 438.4 338.15 437.72 338.15 C437.45 339.01 437.18 339.87 436.9 340.76 C435.75 344.06 434.43 347.13 432.91 350.27 C432.43 351.28 431.95 352.3 431.45 353.34 C428.93 357.42 425.81 359.51 421.72 361.9 C418.87 364.04 417.97 365.16 416.28 368.15 C414.26 371.55 412.47 373.88 408.87 375.65 C402.49 377.11 394.38 374.89 388.73 371.73 C381.85 366.31 376.68 359.54 374.55 351.03 C373.18 347.92 370.56 346.93 367.65 345.38 C363.41 342.67 362.02 337.89 360.16 333.4 C358.3 329.19 356.62 327.78 352.89 325.15 C348.22 321.26 346.54 315.69 344.33 310.18 C341.93 304.64 339.5 301.79 334.49 298.42 C332.25 296.81 331.3 295.29 330.35 292.71 C329.9 291.56 329.9 291.56 329.44 290.4 C328.78 288.34 328.3 286.31 327.85 284.21 C327.48 283.2 327.1 282.19 326.72 281.15 C323.87 280.03 323.87 280.03 320.72 279.15 C315.99 274.15 313.44 268.72 310.57 262.49 C308.67 259.05 306.53 256.84 303.72 254.15 C303.72 253.49 303.72 252.83 303.72 252.15 C302.73 251.82 301.74 251.49 300.72 251.15 C299.66 249.58 299.66 249.58 298.72 247.58 C298.38 246.86 298.03 246.14 297.67 245.4 C296.78 243.27 296.13 241.17 295.47 238.96 C294.27 235.53 292.96 234.42 289.78 232.71 C285.48 230.37 284.35 227.97 282.64 223.49 C280.62 218.33 277.98 214.19 273.72 210.65 C268.11 205.97 265.82 200.76 263.78 193.83 C262.46 189.2 262.46 189.2 258.78 186.27 C257.27 185.71 257.27 185.71 255.72 185.15 C251.04 180.46 248.58 175.46 247.28 168.96 C247.1 168.36 246.91 167.76 246.72 167.15 C245.98 166.86 245.24 166.57 244.47 166.27 C238.29 163.74 235.56 157.39 232.77 151.68 C231.79 149.31 231.24 147.17 230.78 144.65 C230.43 143.49 230.08 142.34 229.72 141.15 C226.88 139.95 226.88 139.95 223.72 139.15 C219.87 135.57 218.46 132.64 216.91 127.65 C215.21 122.52 213.19 120.26 208.62 117.46 C204.62 114.69 202.96 110.7 200.97 106.41 C196.99 97.86 196.99 97.86 190.26 91.43 C185.93 87.82 184.33 81.33 182.72 76.15 C181.83 73.84 181.83 73.84 178.91 72.83 C172.6 69.49 170.25 63.47 167.45 57.23 C165.49 53.07 163.4 50.83 159.72 48.15 C159.06 47.16 158.4 46.17 157.72 45.15 C153.29 43.21 149.41 42.89 144.61 42.87 C143.92 42.87 143.23 42.86 142.52 42.86 C140.21 42.84 137.9 42.84 135.59 42.84 C133.93 42.83 132.27 42.83 130.61 42.82 C127.05 42.8 123.48 42.79 119.91 42.78 C114.26 42.77 108.61 42.74 102.96 42.71 C94.02 42.67 85.08 42.64 76.14 42.61 C60.14 42.56 44.15 42.5 28.15 42.43 C22.55 42.4 16.94 42.38 11.33 42.37 C7.83 42.36 4.33 42.34 0.83 42.33 C-0.78 42.32 -2.4 42.32 -4.01 42.31 C-28.46 42.27 -28.46 42.27 -34.28 37.15 C-38.71 31.91 -38.89 27.7 -38.78 21.15 C-38.79 20.27 -38.81 19.39 -38.83 18.49 C-38.79 12.88 -38.03 9.58 -34.28 5.15 C-25.54 -2.56 -10.99 -0 0 0 Z " fill="#000000" transform="translate(242.278564453125,154.854736328125)"/>
<path d="M0 0 C3.88 3.07 6.63 6.26 7.31 11.25 C7.7 26.12 7.22 38.58 -2 51 C-3.75 52.22 -3.75 52.22 -5.44 53.06 C-10.13 56.12 -11.07 60.88 -12.82 65.97 C-14.24 69.61 -15.96 71.57 -19 74 C-23.37 77.73 -24.96 81.06 -26.91 86.3 C-29.27 92.16 -31.94 98.08 -37.56 101.31 C-42.25 104.17 -43.11 109.01 -44.82 113.97 C-46.24 117.61 -47.96 119.57 -51 122 C-55.37 125.73 -56.96 129.06 -58.91 134.3 C-61.27 140.16 -63.94 146.08 -69.56 149.31 C-74.25 152.17 -75.11 157.01 -76.82 161.97 C-78.24 165.61 -79.96 167.57 -83 170 C-87.37 173.73 -88.96 177.06 -90.91 182.3 C-93.27 188.16 -95.94 194.08 -101.56 197.31 C-106.24 200.16 -106.99 204.95 -108.68 209.89 C-110.56 214.31 -113.17 216.33 -117 219 C-120.42 221.67 -121.49 225.37 -122.94 229.31 C-127.67 242.2 -127.67 242.2 -133.44 245.06 C-138.12 248.1 -138.95 252.82 -140.68 257.89 C-142.56 262.31 -145.17 264.33 -149 267 C-152.42 269.67 -153.49 273.37 -154.94 277.31 C-159.67 290.2 -159.67 290.2 -165.44 293.06 C-170.12 296.1 -170.95 300.82 -172.68 305.89 C-174.56 310.31 -177.17 312.33 -181 315 C-184.42 317.67 -185.49 321.37 -186.94 325.31 C-191.67 338.2 -191.67 338.2 -197.44 341.06 C-202.12 344.1 -202.95 348.82 -204.68 353.89 C-206.56 358.31 -209.17 360.33 -213 363 C-216.42 365.67 -217.49 369.37 -218.94 373.31 C-223.67 386.2 -223.67 386.2 -229.44 389.06 C-234.12 392.1 -234.95 396.82 -236.68 401.89 C-238.56 406.31 -241.17 408.33 -245 411 C-248.42 413.67 -249.49 417.37 -250.94 421.31 C-255.67 434.2 -255.67 434.2 -261.44 437.06 C-266.09 440.1 -267.01 444.76 -268.73 449.82 C-270.45 454.14 -272.73 456.73 -276 460 C-269.08 460.9 -262.32 461.15 -255.35 461.15 C-254.22 461.15 -253.09 461.15 -251.92 461.16 C-248.21 461.16 -244.49 461.17 -240.77 461.17 C-238.18 461.17 -235.59 461.17 -232.99 461.18 C-227.57 461.18 -222.14 461.19 -216.72 461.19 C-210.46 461.18 -204.2 461.2 -197.94 461.21 C-191.9 461.23 -185.86 461.23 -179.82 461.23 C-177.26 461.23 -174.69 461.23 -172.13 461.24 C-168.55 461.25 -164.97 461.25 -161.39 461.24 C-159.81 461.25 -159.81 461.25 -158.2 461.26 C-152.76 461.24 -148.1 460.97 -143 459 C-141.82 457.13 -141.82 457.13 -141 455 C-140.24 454.46 -139.48 453.92 -138.7 453.37 C-135.23 450.33 -133.85 447.15 -132 443 C-129.7 437.84 -127.93 434.16 -123 431 C-122.01 430.67 -121.02 430.34 -120 430 C-118.11 427.16 -117.46 425.36 -116.62 422.12 C-114.99 416.51 -112.88 413.37 -108.11 409.89 C-103.75 406.29 -102.22 401.45 -100.17 396.33 C-97.76 390.72 -94.81 387.67 -90 384 C-86.62 381.04 -85.38 378.87 -84.12 374.56 C-82.33 369.28 -80.72 366.95 -76 364 C-74.68 363.63 -73.34 363.28 -72 363 C-71.85 362.32 -71.71 361.64 -71.55 360.95 C-69.21 351.22 -65.45 342.76 -57 337 C-56.34 337 -55.68 337 -55 337 C-54.82 336.42 -54.64 335.84 -54.45 335.24 C-51.93 327.41 -49.76 321.93 -43 317 C-42.01 316.67 -41.02 316.34 -40 316 C-38.77 313.05 -38.77 313.05 -37.75 309.5 C-35.17 301.61 -31.28 296.13 -25.31 290.44 C-21.9 286.84 -20.17 282.59 -18.14 278.11 C-16.27 274.36 -14.77 272.71 -11 270.81 C-6.96 268.58 -6.05 266.3 -4.69 261.94 C-4.42 260.92 -4.16 259.89 -3.89 258.84 C-2.99 255.96 -2.05 254.19 0 252 C0.66 252 1.32 252 2 252 C2.34 251.2 2.34 251.2 2.69 250.38 C4 248 4 248 6.36 245.3 C9.91 241.09 11.89 236.22 14.16 231.24 C16.1 227.83 17.72 226.12 21 224 C21.73 223.85 22.46 223.7 23.22 223.54 C23.81 223.36 24.39 223.18 25 223 C26 220.92 26 220.92 26.5 218.38 C28.17 212.15 29.63 207.48 35.36 203.89 C39.94 200.72 41.51 196.54 43.56 191.5 C46.22 185.06 48.32 181.12 54 177 C58.34 173.22 59.65 169.2 61.56 163.88 C63.55 159.9 66.16 157.81 70.21 156.03 C72.68 154.61 72.87 153.26 73.69 150.56 C76.46 143.05 81.65 135.7 88.56 131.44 C94.16 129.1 99.87 127.2 106 128 C110.59 130.15 112.56 132.66 115.31 136.88 C117.72 140.55 119.57 142.58 123.44 144.62 C130.33 148.68 133.08 156.9 136 164 C136 164.66 136 165.32 136 166 C136.59 166.26 137.18 166.52 137.78 166.79 C142.65 169.45 146.21 173.73 148.02 178.95 C148.44 180.49 148.44 180.49 148.88 182.06 C150.57 187.93 152.95 189.95 157.88 193.31 C161.48 196.18 162.65 199.71 164 204 C164.3 204.9 164.59 205.81 164.9 206.74 C168 217.01 167.65 224.19 163 234 C160.44 238.12 158.05 241.3 154 244 C148.53 243.79 145.29 242.34 141 239 C140.38 238.32 139.76 237.64 139.12 236.94 C136.96 234.96 135.85 234.53 133.12 233.69 C128.34 232.04 125.71 229.21 123 225 C122.55 223.8 122.09 222.61 121.62 221.38 C119.65 217.27 117.71 216.34 113.86 214.17 C108.47 210.79 106.92 202.76 105 197 C97.34 199.6 90.17 202.15 86.14 209.59 C84.96 212.1 83.9 214.61 82.92 217.21 C80.77 222.84 78.91 225.46 74 229 C70.63 231.95 69.37 234.15 68.12 238.44 C66.33 243.74 64.68 245.98 60 249 C59.33 249.23 58.65 249.47 57.96 249.71 C54.94 251.7 54.65 254.22 53.62 257.62 C51.22 265 48.35 270.56 42 275.19 C37.89 278.31 36.47 283.19 34.59 287.84 C32.36 292.28 29.67 295.09 25.3 297.46 C22.25 299.5 22.01 301.11 21.12 304.62 C18.87 312.16 14.95 317.19 9.31 322.56 C5.9 326.16 4.17 330.41 2.14 334.89 C0.27 338.64 -1.23 340.29 -5 342.19 C-9.03 344.42 -9.91 346.65 -11.25 351 C-11.55 352.05 -11.84 353.11 -12.15 354.19 C-13.58 358.92 -15.97 361.25 -19.89 364.1 C-24.24 367.71 -25.78 372.55 -27.83 377.67 C-30.22 383.24 -33.15 386.42 -38 390 C-41.31 392.65 -42.48 395.03 -43.94 398.94 C-45.58 403.3 -47.29 406.03 -51 409 C-51.66 409.25 -52.33 409.49 -53.01 409.75 C-55.96 411.6 -56.3 413.8 -57.38 417.06 C-60.59 425.94 -63.88 431.95 -72 437 C-74.31 439.99 -75.25 442.86 -76.25 446.44 C-77.82 451.4 -80.56 454.33 -85 457 C-87.22 457.66 -87.22 457.66 -89 458 C-89.06 458.59 -89.13 459.19 -89.19 459.8 C-90.48 468.52 -94.34 476.48 -101.5 481.88 C-105.94 485.25 -107.81 490.02 -110.13 494.98 C-112.46 498.75 -113.97 500.07 -118 502 C-128.4 504.44 -138.92 504.29 -149.53 504.26 C-151.36 504.26 -153.19 504.27 -155.03 504.27 C-159.97 504.28 -164.91 504.28 -169.85 504.27 C-175.05 504.26 -180.24 504.27 -185.43 504.27 C-194.15 504.28 -202.87 504.27 -211.59 504.26 C-221.64 504.25 -231.69 504.25 -241.75 504.26 C-250.41 504.27 -259.07 504.27 -267.73 504.27 C-272.89 504.27 -278.05 504.27 -283.21 504.27 C-288.06 504.28 -292.91 504.27 -297.76 504.26 C-299.54 504.26 -301.31 504.26 -303.08 504.27 C-329.62 504.33 -329.62 504.33 -335.69 499.69 C-340.39 494.22 -340.34 489.11 -340.31 482.19 C-340.33 481.32 -340.34 480.46 -340.36 479.57 C-340.37 473.55 -339.97 467.12 -335.58 462.51 C-334.11 461.28 -332.55 460.13 -331 459 C-327.59 456.32 -326.51 452.63 -325.06 448.69 C-320.33 435.8 -320.33 435.8 -314.56 432.94 C-309.88 429.9 -309.05 425.18 -307.32 420.11 C-305.44 415.69 -302.83 413.67 -299 411 C-295.58 408.33 -294.51 404.63 -293.06 400.69 C-288.33 387.8 -288.33 387.8 -282.56 384.94 C-277.88 381.9 -277.05 377.18 -275.32 372.11 C-273.44 367.69 -270.83 365.67 -267 363 C-263.58 360.33 -262.51 356.63 -261.06 352.69 C-256.33 339.8 -256.33 339.8 -250.56 336.94 C-245.88 333.9 -245.05 329.18 -243.32 324.11 C-241.44 319.69 -238.83 317.67 -235 315 C-231.58 312.33 -230.51 308.63 -229.06 304.69 C-224.33 291.8 -224.33 291.8 -218.56 288.94 C-213.88 285.9 -213.05 281.18 -211.32 276.11 C-209.44 271.69 -206.83 269.67 -203 267 C-199.58 264.33 -198.51 260.63 -197.06 256.69 C-192.33 243.8 -192.33 243.8 -186.56 240.94 C-181.88 237.9 -181.05 233.18 -179.32 228.11 C-177.44 223.69 -174.83 221.67 -171 219 C-167.58 216.33 -166.51 212.63 -165.06 208.69 C-160.33 195.8 -160.33 195.8 -154.56 192.94 C-149.88 189.9 -149.05 185.18 -147.32 180.11 C-145.44 175.69 -142.83 173.67 -139 171 C-135.58 168.33 -134.51 164.63 -133.06 160.69 C-128.33 147.8 -128.33 147.8 -122.56 144.94 C-117.88 141.9 -117.05 137.18 -115.32 132.11 C-113.44 127.69 -110.83 125.67 -107 123 C-103.58 120.33 -102.51 116.63 -101.06 112.69 C-98.52 105.76 -96.06 99.34 -89 96 C-88.34 96 -87.68 96 -87 96 C-86.82 95.35 -86.64 94.7 -86.45 94.02 C-84.05 85.69 -81.93 80.34 -75 75 C-71.59 72.31 -70.51 68.64 -69.06 64.69 C-66.52 57.76 -64.06 51.34 -57 48 C-56.34 48 -55.68 48 -55 48 C-54.82 47.35 -54.64 46.7 -54.45 46.02 C-52.05 37.69 -49.93 32.34 -43 27 C-40.03 24.51 -39 21.91 -37.62 18.31 C-32.05 4.53 -32.05 4.53 -25 1 C-16.84 -1.44 -8.13 -3.49 0 0 Z " fill="#000000" transform="translate(544,621)"/>
<path d="M0 0 C4.07 2.19 6.74 5.35 9.81 8.77 C10.42 9.42 11.02 10.08 11.64 10.75 C13.38 12.66 15.1 14.58 16.81 16.52 C17.32 17.09 17.83 17.67 18.36 18.27 C21.8 22.26 21.8 22.26 21.88 24.58 C20.02 27.96 17.67 30.7 14.89 33.36 C12.02 36.34 9.94 39.71 7.69 43.18 C5.61 45.77 3.8 47.08 0.81 48.52 C-4.81 48.62 -7.63 46.8 -11.57 43.13 C-13.78 40.93 -15.98 38.72 -18.19 36.52 C-19.22 35.71 -20.25 34.91 -21.31 34.08 C-24.4 31.33 -25.84 29.41 -27.19 25.52 C-27 21.04 -25.74 18.14 -23.19 14.52 C-20.52 12.49 -20.52 12.49 -17.44 10.58 C-12.64 7.51 -8.43 4.3 -4.19 0.52 C-2.19 -0.48 -2.19 -0.48 0 0 Z " fill="#000000" transform="translate(329.1875,304.484375)"/>
<path d="M0 0 C0.77 -0.01 1.55 -0.02 2.34 -0.04 C7.64 -0.01 11.37 0.88 16.06 3.38 C21.19 8.91 21.29 12.55 21.21 19.91 C20.94 26.17 20.66 31.36 16.69 36.38 C11.29 40.49 7.31 40.74 0.69 40.75 C-0.15 40.77 -0.99 40.8 -1.85 40.82 C-7.38 40.85 -10.57 40.08 -14.94 36.38 C-19.06 30.68 -19.17 25.29 -19.25 18.5 C-19.28 17.71 -19.31 16.92 -19.34 16.11 C-19.4 10.73 -18.68 7.53 -14.94 3.38 C-10.07 0.03 -5.7 -0.09 0 0 Z " fill="#000000" transform="translate(254.9375,202.625)"/>
<path d="M0 0 C6.04 5.67 10.63 14.75 12.8 22.69 C12.15 26.88 10.05 29.12 6.8 31.69 C-0.56 36.55 -6.26 39.64 -15.2 38.69 C-22.66 36.86 -29.62 32.96 -34.2 26.69 C-35.78 20 -31.42 13.29 -28.2 7.69 C-27.58 6.57 -26.97 5.46 -26.33 4.31 C-23.22 0.48 -19.82 -1.22 -15.27 -3.12 C-9.98 -3.61 -4.56 -2.84 0 0 Z " fill="#000000" transform="translate(515.203125,575.3125)"/>
<path d="M0 0 C4.39 2.52 7.1 5.43 8.88 10.19 C10.66 16.84 12.32 23.87 9.56 30.44 C6.92 34.66 3.6 36.3 -1 38 C-4 38.65 -6.93 38.87 -10 39 C-10.76 39.06 -11.51 39.13 -12.29 39.19 C-18.02 39.5 -22.23 38.22 -27 35 C-31.13 30.21 -31.2 24.65 -30.75 18.62 C-29.81 10.73 -28.9 4.66 -22.94 -0.94 C-15.95 -3.47 -6.9 -2.7 0 0 Z " fill="#000000" transform="translate(409,415)"/>
<path d="M0 0 C4.93 7.14 5.94 17.52 5 26 C3.11 31.37 0.08 34.46 -5 37 C-14.28 37.79 -24.07 37.06 -32.12 32.06 C-35.96 27.84 -36.38 24.34 -36.25 18.8 C-35.7 12.61 -34.51 7.02 -30.75 2 C-21.55 -4.69 -9.42 -7.02 0 0 Z " fill="#000000" transform="translate(305,257)"/>
<path d="M0 0 C4.05 0.05 5.99 1.91 8.88 4.62 C13.8 10.05 15.75 14.33 16.44 21.56 C16.01 30.08 12.73 35.62 7.1 41.88 C3.97 44.56 2 44.63 -2.07 44.6 C-10.2 43.8 -14.85 42.26 -20.23 35.98 C-24.66 29.87 -25.96 24.16 -24.94 16.62 C-23.26 10.42 -19.43 6.66 -14.3 2.97 C-9.64 0.32 -5.2 0.83 0 0 Z " fill="#000000" transform="translate(436.9375,466.375)"/>
<path d="M0 0 C4.62 5.96 3.39 13.64 2.75 20.75 C1.84 26.92 -0.26 30.92 -5 35 C-9.6 38.07 -14.82 37.02 -20 36 C-25.78 34.44 -31.09 32.33 -34.8 27.46 C-36.45 24.07 -37.31 20.6 -38.06 16.94 C-38.21 16.25 -38.35 15.57 -38.5 14.86 C-39.34 9.94 -38.79 7.11 -36 3 C-32.26 -0.8 -28.26 -2.11 -23.19 -3.31 C-22.18 -3.58 -22.18 -3.58 -21.15 -3.86 C-13.24 -5.81 -6.64 -4.81 0 0 Z " fill="#000000" transform="translate(484,527)"/>
<path d="M0 0 C2.92 1.91 5.41 3.81 7 7 C7.65 14.12 7.05 21.52 3.38 27.75 C-2.38 33.2 -9.02 37.01 -17.11 37 C-22.68 36.5 -26.18 34.91 -30 30.9 C-32.47 27.31 -33.28 24.08 -34.19 19.88 C-34.51 18.46 -34.84 17.04 -35.17 15.62 C-35.44 14.42 -35.72 13.23 -36 12 C-36.33 11.01 -36.66 10.02 -37 9 C-34.39 3.06 -30.77 -0.81 -24.83 -3.34 C-16.26 -6.41 -8.07 -3.76 0 0 Z " fill="#000000" transform="translate(378,367)"/>
<path d="M0 0 C4.19 2.04 6.37 4.41 8.09 8.75 C10.11 16.04 11.84 23.45 8.25 30.38 C3.47 35.95 -0.89 37.15 -8 38 C-20.81 38.86 -20.81 38.86 -26 35 C-29.14 31.59 -29.96 28.02 -30.13 23.46 C-29.28 6.2 -29.28 6.2 -23.44 0.5 C-16.46 -3.79 -7.61 -2.31 0 0 Z " fill="#000000" transform="translate(777,927)"/>
<path d="M0 0 C5.92 7.05 8.56 14.31 8.3 23.52 C7.42 30.72 3.31 35.11 -1.9 39.85 C-4 41 -4 41 -6.29 40.82 C-7.18 40.55 -8.08 40.28 -9 40 C-10.17 39.66 -11.35 39.33 -12.56 38.98 C-13.85 38.58 -15.15 38.16 -16.44 37.75 C-17.08 37.56 -17.72 37.37 -18.38 37.17 C-23.93 35.38 -28.36 32.87 -31.35 27.64 C-32.93 22.36 -33.49 18.34 -31.33 13.16 C-26.11 4.67 -17.07 0.25 -7.86 -2.68 C-4.47 -3.26 -2.78 -1.89 0 0 Z " fill="#000000" transform="translate(813,979)"/>
<path d="M0 0 C2.75 2.25 2.75 2.25 5 5 C5.82 5.84 5.82 5.84 6.66 6.7 C10.98 11.24 10.98 11.24 11.06 14.62 C9.9 17.23 8.47 19.55 7 22 C6.36 23.64 5.74 25.29 5.12 26.94 C3 32.35 0.74 36.34 -4.38 39.44 C-9.09 40.45 -12.69 39.63 -17 37.56 C-20.54 34.54 -22.83 31.26 -25.39 27.4 C-27.04 24.86 -27.04 24.86 -29.31 22.12 C-32.08 18.64 -33.02 17.06 -32.94 12.5 C-31.77 8.13 -30.79 7.4 -27 5 C-26.24 4.5 -25.48 4.01 -24.69 3.5 C-15.94 -2.03 -9.8 -4.46 0 0 Z " fill="#000000" transform="translate(849,1035)"/>
<path d="M0 0 C3.83 2.47 6.53 4.29 7.77 8.8 C8.33 16.6 5.18 24.18 0.25 30.12 C-4 34.4 -7.99 36.91 -14.11 37.05 C-19.62 36.59 -23.17 34.88 -26.98 30.97 C-31.19 24.79 -32.73 16.43 -33 9 C-31.55 3.4 -28.05 0.32 -23.19 -2.56 C-15.02 -5.92 -7.57 -4.04 0 0 Z " fill="#000000" transform="translate(743,879)"/>
</svg>
